<svg data-v-fde0c5aa="" xmlns="http://www.w3.org/2000/svg" viewBox="0 0 300 300" class="font"><!----><defs data-v-fde0c5aa=""><!----></defs><rect data-v-fde0c5aa="" fill="transparent" x="0" y="0" width="300px" height="300px" class="logo-background-square"></rect><defs data-v-fde0c5aa=""><linearGradient data-v-fde0c5aa="" gradientTransform="rotate(25)" id="290b797f-ce6c-4984-ba78-c137c2b3f625" x1="0%" y1="0%" x2="100%" y2="0%"><stop data-v-fde0c5aa="" offset="0%" stop-color="#41E296" stop-opacity="1"></stop><stop data-v-fde0c5aa="" offset="100%" stop-color="#00C4EE" stop-opacity="1"></stop></linearGradient></defs><g data-v-fde0c5aa="" id="48c54679-a4f7-4cc1-b6c1-e389f5940789" fill="url(#290b797f-ce6c-4984-ba78-c137c2b3f625)" transform="matrix(5.047029117455482,0,0,5.047029117455482,39.49529708073379,99.75682672409395)"><path d="M7.13 13.51L6.19 10.86L2.44 10.86L1.50 13.51L0.10 13.51L3.61 3.71L5.01 3.71L8.53 13.51L7.13 13.51ZM2.86 9.66L5.77 9.66L4.31 5.57L2.86 9.66ZM9.46 13.51L9.46 3.01L10.72 3.01L10.72 9.74L13.24 6.65L14.78 6.65L12.05 9.84L14.85 13.51L13.31 13.51L10.72 10.02L10.72 13.51L9.46 13.51ZM20.26 3.01L21.52 3.01L21.52 13.51L20.40 13.51L20.26 12.67Q19.91 13.15 19.35 13.40Q18.79 13.65 18.16 13.65L18.16 13.65Q17.29 13.65 16.58 13.17Q15.86 12.70 15.45 11.89Q15.04 11.07 15.04 10.09L15.04 10.09Q15.04 9.14 15.42 8.32Q15.81 7.49 16.52 7Q17.23 6.51 18.16 6.51L18.16 6.51Q18.77 6.51 19.32 6.73Q19.87 6.96 20.26 7.42L20.26 7.42L20.26 3.01ZM18.38 12.53Q18.89 12.53 19.35 12.27Q19.81 12.01 20.10 11.47Q20.40 10.92 20.40 10.09L20.40 10.09Q20.40 9.32 20.10 8.76Q19.81 8.20 19.34 7.92Q18.87 7.63 18.38 7.63L18.38 7.63Q17.43 7.63 16.88 8.32Q16.32 9.02 16.32 10.09L16.32 10.09Q16.32 11.13 16.88 11.83Q17.44 12.53 18.38 12.53L18.38 12.53ZM26.50 13.65Q25.33 13.65 24.49 13.17Q23.66 12.68 23.23 11.86Q22.79 11.03 22.79 10.02L22.79 10.02Q22.79 9.06 23.19 8.25Q23.59 7.45 24.35 6.98Q25.12 6.51 26.15 6.51L26.15 6.51Q27.47 6.51 28.29 7.28Q29.11 8.05 29.11 9.41L29.11 9.41Q29.11 9.76 29.05 10.08L29.05 10.08L24.08 10.08Q24.21 11.41 24.89 11.97Q25.58 12.53 26.66 12.53L26.66 12.53Q27.73 12.53 28.63 12.12L28.63 12.12L28.80 13.12Q27.61 13.65 26.50 13.65L26.50 13.65ZM24.19 9.21L27.80 9.21Q27.80 8.47 27.38 8.05Q26.96 7.63 26.12 7.63L26.12 7.63Q25.31 7.63 24.85 8.03Q24.39 8.43 24.19 9.21L24.19 9.21ZM32.21 13.51L29.60 6.65L31.00 6.65L32.91 12.12L34.82 6.65L36.23 6.65L33.63 13.51L32.21 13.51ZM40.70 6.51Q41.61 6.51 42.29 6.98Q42.97 7.45 43.33 8.26Q43.69 9.07 43.69 10.08L43.69 10.08Q43.69 11.10 43.35 11.91Q43.01 12.71 42.34 13.18Q41.66 13.65 40.70 13.65L40.70 13.65Q39.98 13.65 39.40 13.40Q38.81 13.15 38.47 12.67L38.47 12.67L38.47 16.90L37.21 16.90L37.21 6.65L38.19 6.65L38.33 7.60Q39.20 6.51 40.70 6.51L40.70 6.51ZM40.46 12.53Q41.37 12.53 41.89 11.88Q42.41 11.23 42.41 10.08L42.41 10.08Q42.41 8.93 41.89 8.28Q41.37 7.63 40.46 7.63L40.46 7.63Q39.56 7.63 38.98 8.26Q38.40 8.89 38.40 10.08L38.40 10.08Q38.40 11.31 38.98 11.92Q39.55 12.53 40.46 12.53L40.46 12.53Z"></path></g><!----><!----></svg>